<mxfile host="65bd71144e">
    <diagram id="3U8QMDnmNgkDsT2oybus" name="Page-1">
        <mxGraphModel dx="2931" dy="1076" grid="1" gridSize="10" guides="1" tooltips="1" connect="1" arrows="1" fold="1" page="1" pageScale="1" pageWidth="1100" pageHeight="850" math="0" shadow="0">
            <root>
                <mxCell id="0"/>
                <mxCell id="1" parent="0"/>
                <mxCell id="2" value="&lt;span style=&quot;line-height: 130%;&quot;&gt;&lt;font style=&quot;color: rgb(204, 40, 122); font-size: 30px;&quot;&gt;Start&lt;/font&gt;&lt;/span&gt;" style="whiteSpace=wrap;html=1;fillColor=#d5e8d4;strokeColor=#82b366;rounded=1;arcSize=26;shadow=1;verticalAlign=middle;" parent="1" vertex="1">
                    <mxGeometry x="370" y="10" width="260" height="50" as="geometry"/>
                </mxCell>
                <mxCell id="3" value="&lt;font style=&quot;font-size: 30px;&quot;&gt;&lt;font style=&quot;color: rgb(204, 40, 122);&quot;&gt;Read&lt;/font&gt; YAML Config. File&lt;/font&gt;" style="whiteSpace=wrap;html=1;fillColor=#d5e8d4;strokeColor=#82b366;rounded=1;arcSize=26;shadow=1;verticalAlign=middle;fontSize=12;" parent="1" vertex="1">
                    <mxGeometry x="500" y="90" width="400" height="80" as="geometry"/>
                </mxCell>
                <mxCell id="25" style="html=1;dashed=1;strokeWidth=3;endArrow=none;endFill=0;edgeStyle=elbowEdgeStyle;strokeColor=#666666;" edge="1" parent="1" source="12" target="11">
                    <mxGeometry relative="1" as="geometry">
                        <mxPoint x="-480" y="340" as="targetPoint"/>
                        <Array as="points">
                            <mxPoint x="-480" y="300"/>
                        </Array>
                    </mxGeometry>
                </mxCell>
                <mxCell id="12" value="&lt;font style=&quot;color: rgb(204, 40, 122); font-size: 30px;&quot;&gt;Ab-initio&lt;/font&gt;" style="rounded=1;whiteSpace=wrap;html=1;fillColor=#FF3333;opacity=60;strokeColor=#C20000;strokeWidth=5;align=center;labelPosition=center;verticalLabelPosition=middle;verticalAlign=middle;textShadow=1;" vertex="1" parent="1">
                    <mxGeometry x="-850" y="195" width="260" height="70" as="geometry"/>
                </mxCell>
                <mxCell id="14" value="&lt;font style=&quot;font-size: 30px;&quot;&gt;&lt;span&gt;SPARC&lt;/span&gt;&lt;/font&gt;" style="text;html=1;align=center;verticalAlign=middle;whiteSpace=wrap;rounded=0;fillColor=default;fontColor=#0000FF;fontStyle=1;labelBorderColor=none;labelBackgroundColor=none;textShadow=1;" vertex="1" parent="1">
                    <mxGeometry x="-330" y="210" width="130" height="70" as="geometry"/>
                </mxCell>
                <mxCell id="13" value="" style="points=[];aspect=fixed;html=1;align=center;shadow=0;dashed=0;fillColor=#990000;strokeColor=none;shape=mxgraph.alibaba_cloud.petadata_hybriddb_for_mysql;" vertex="1" parent="1">
                    <mxGeometry x="-660" y="210" width="40.42" height="40" as="geometry"/>
                </mxCell>
                <mxCell id="11" value="" style="sketch=0;outlineConnect=0;fontColor=#232F3E;gradientColor=none;strokeColor=#ffffff;fillColor=#4D4D4D;dashed=0;verticalLabelPosition=middle;verticalAlign=bottom;align=center;html=1;whiteSpace=wrap;fontSize=10;fontStyle=1;spacing=3;shape=mxgraph.aws4.productIcon;prIcon=mxgraph.aws4.sagemaker;" parent="1" vertex="1">
                    <mxGeometry x="-360" y="270" width="190" height="190" as="geometry"/>
                </mxCell>
                <mxCell id="19" value="&lt;font style=&quot;color: rgb(102, 102, 102);&quot;&gt;VASP&lt;/font&gt;" style="text;html=1;align=center;verticalAlign=middle;whiteSpace=wrap;rounded=0;fontColor=#808080;fontStyle=0;fontFamily=Helvetica;fontSize=27;" vertex="1" parent="1">
                    <mxGeometry x="-820" y="310" width="90" height="30" as="geometry"/>
                </mxCell>
                <mxCell id="22" style="html=1;dashed=1;endArrow=none;endFill=0;strokeWidth=3;exitX=1;exitY=0.5;exitDx=0;exitDy=0;strokeColor=#666666;" edge="1" parent="1" source="21">
                    <mxGeometry relative="1" as="geometry">
                        <mxPoint x="-650" y="270" as="targetPoint"/>
                        <mxPoint x="-780" y="460" as="sourcePoint"/>
                        <Array as="points">
                            <mxPoint x="-650" y="375"/>
                        </Array>
                    </mxGeometry>
                </mxCell>
                <mxCell id="21" value="&lt;font style=&quot;color: rgb(102, 102, 102);&quot;&gt;PLUMED&lt;/font&gt;" style="text;html=1;align=center;verticalAlign=middle;whiteSpace=wrap;rounded=0;fontColor=#808080;fontStyle=0;fontFamily=Helvetica;fontSize=27;" vertex="1" parent="1">
                    <mxGeometry x="-850" y="360" width="120" height="30" as="geometry"/>
                </mxCell>
                <mxCell id="24" value="" style="endArrow=none;dashed=1;html=1;strokeWidth=3;exitX=1;exitY=0.5;exitDx=0;exitDy=0;strokeColor=#666666;" edge="1" parent="1" source="19">
                    <mxGeometry width="50" height="50" relative="1" as="geometry">
                        <mxPoint x="-560" y="610" as="sourcePoint"/>
                        <mxPoint x="-650" y="325" as="targetPoint"/>
                    </mxGeometry>
                </mxCell>
                <mxCell id="26" value="&lt;font style=&quot;font-size: 30px; color: rgb(0, 153, 0);&quot;&gt;Active Learning&lt;/font&gt;" style="rounded=1;whiteSpace=wrap;html=1;fillColor=#6FAD64;opacity=60;strokeColor=#6FAD64;strokeWidth=5;align=center;labelPosition=center;verticalLabelPosition=middle;verticalAlign=middle;textShadow=1;" vertex="1" parent="1">
                    <mxGeometry x="-890" y="580" width="340" height="70" as="geometry"/>
                </mxCell>
                <mxCell id="27" value="" style="sketch=0;outlineConnect=0;fontColor=#232F3E;gradientColor=none;fillColor=#7AA116;strokeColor=none;dashed=0;verticalLabelPosition=bottom;verticalAlign=top;align=center;html=1;fontSize=12;fontStyle=0;aspect=fixed;pointerEvents=1;shape=mxgraph.aws4.iot_greengrass_component_machine_learning;" vertex="1" parent="1">
                    <mxGeometry x="-610" y="590" width="50" height="50" as="geometry"/>
                </mxCell>
                <mxCell id="28" style="html=1;dashed=1;strokeWidth=3;endArrow=none;endFill=0;edgeStyle=elbowEdgeStyle;strokeColor=#666666;" edge="1" parent="1" source="26" target="11">
                    <mxGeometry relative="1" as="geometry">
                        <mxPoint x="-50" y="620" as="sourcePoint"/>
                        <mxPoint x="-170" y="425" as="targetPoint"/>
                        <Array as="points">
                            <mxPoint x="-380" y="520"/>
                        </Array>
                    </mxGeometry>
                </mxCell>
                <mxCell id="29" value="&lt;font style=&quot;font-size: 30px; color: rgb(0, 0, 255);&quot;&gt;ML Training&lt;/font&gt;" style="rounded=1;whiteSpace=wrap;html=1;fillColor=#6666FF;opacity=60;strokeColor=#6666FF;strokeWidth=5;align=center;labelPosition=center;verticalLabelPosition=middle;verticalAlign=middle;textShadow=1;" vertex="1" parent="1">
                    <mxGeometry y="425" width="335" height="70" as="geometry"/>
                </mxCell>
                <mxCell id="34" value="" style="sketch=0;points=[[0,0,0],[0.25,0,0],[0.5,0,0],[0.75,0,0],[1,0,0],[0,1,0],[0.25,1,0],[0.5,1,0],[0.75,1,0],[1,1,0],[0,0.25,0],[0,0.5,0],[0,0.75,0],[1,0.25,0],[1,0.5,0],[1,0.75,0]];outlineConnect=0;fontColor=#232F3E;fillColor=#6666FF;strokeColor=#ffffff;dashed=0;verticalLabelPosition=bottom;verticalAlign=top;align=center;html=1;fontSize=12;fontStyle=0;aspect=fixed;shape=mxgraph.aws4.resourceIcon;resIcon=mxgraph.aws4.bedrock;gradientColor=default;" vertex="1" parent="1">
                    <mxGeometry x="255" y="430" width="60" height="60" as="geometry"/>
                </mxCell>
                <mxCell id="38" value="&lt;font style=&quot;font-size: 30px; color: rgb(255, 128, 0);&quot;&gt;Data Set&lt;/font&gt;" style="rounded=1;whiteSpace=wrap;html=1;fillColor=#ffe6cc;opacity=60;strokeColor=#d79b00;strokeWidth=5;align=center;labelPosition=center;verticalLabelPosition=middle;verticalAlign=middle;textShadow=1;" vertex="1" parent="1">
                    <mxGeometry x="20" y="180" width="290" height="70" as="geometry"/>
                </mxCell>
                <mxCell id="39" value="" style="sketch=0;outlineConnect=0;fontColor=#232F3E;gradientColor=none;fillColor=#FF8000;strokeColor=none;dashed=0;verticalLabelPosition=bottom;verticalAlign=top;align=center;html=1;fontSize=12;fontStyle=0;aspect=fixed;pointerEvents=1;shape=mxgraph.aws4.redshift_data_sharing_governance;shadow=0;fontFamily=Helvetica;" vertex="1" parent="1">
                    <mxGeometry x="40" y="190" width="50" height="50" as="geometry"/>
                </mxCell>
                <mxCell id="42" value="" style="endArrow=none;dashed=1;html=1;fontFamily=Helvetica;fontSize=12;fontColor=#232F3E;fontStyle=0;entryX=0;entryY=0.5;entryDx=0;entryDy=0;edgeStyle=elbowEdgeStyle;strokeWidth=3;endFill=0;strokeColor=#666666;" edge="1" parent="1" source="11" target="38">
                    <mxGeometry width="50" height="50" relative="1" as="geometry">
                        <mxPoint x="-120" y="460" as="sourcePoint"/>
                        <mxPoint x="-70" y="410" as="targetPoint"/>
                    </mxGeometry>
                </mxCell>
                <mxCell id="44" value="" style="endArrow=none;dashed=1;html=1;strokeWidth=3;fontFamily=Helvetica;fontSize=12;fontColor=#232F3E;fontStyle=0;entryX=0.5;entryY=1;entryDx=0;entryDy=0;exitX=0.5;exitY=0;exitDx=0;exitDy=0;strokeColor=#666666;" edge="1" parent="1" source="29" target="38">
                    <mxGeometry width="50" height="50" relative="1" as="geometry">
                        <mxPoint x="400" y="380" as="sourcePoint"/>
                        <mxPoint x="220" y="250" as="targetPoint"/>
                    </mxGeometry>
                </mxCell>
                <mxCell id="45" value="&lt;font style=&quot;font-size: 30px;&quot;&gt;Deep Potential MD&lt;/font&gt;" style="rounded=1;whiteSpace=wrap;html=1;fillColor=#e1d5e7;opacity=60;strokeColor=#9673A6;strokeWidth=5;align=center;labelPosition=center;verticalLabelPosition=middle;verticalAlign=middle;textShadow=1;fontColor=#9673A6;" vertex="1" parent="1">
                    <mxGeometry x="-240" y="690" width="340" height="70" as="geometry"/>
                </mxCell>
                <mxCell id="46" value="" style="endArrow=none;dashed=1;html=1;strokeWidth=3;fontFamily=Helvetica;fontSize=12;fontColor=#232F3E;fontStyle=0;exitX=0.5;exitY=1;exitDx=0;exitDy=0;entryX=1;entryY=0.5;entryDx=0;entryDy=0;edgeStyle=orthogonalEdgeStyle;strokeColor=#666666;" edge="1" parent="1" source="29" target="45">
                    <mxGeometry width="50" height="50" relative="1" as="geometry">
                        <mxPoint x="-120" y="460" as="sourcePoint"/>
                        <mxPoint x="180" y="720" as="targetPoint"/>
                    </mxGeometry>
                </mxCell>
                <mxCell id="47" value="&lt;font style=&quot;font-size: 30px; color: rgb(0, 153, 0);&quot;&gt;Query/Labelling&lt;/font&gt;" style="rounded=1;whiteSpace=wrap;html=1;fillColor=#6FAD64;opacity=60;strokeColor=#6FAD64;strokeWidth=5;align=center;labelPosition=center;verticalLabelPosition=middle;verticalAlign=middle;textShadow=1;" vertex="1" parent="1">
                    <mxGeometry x="-850" y="690" width="340" height="70" as="geometry"/>
                </mxCell>
                <mxCell id="49" value="" style="endArrow=none;dashed=1;html=1;strokeWidth=3;fontFamily=Helvetica;fontSize=12;fontColor=#232F3E;fontStyle=0;exitX=1;exitY=0.5;exitDx=0;exitDy=0;entryX=0;entryY=0.5;entryDx=0;entryDy=0;strokeColor=#666666;" edge="1" parent="1" source="47" target="45">
                    <mxGeometry width="50" height="50" relative="1" as="geometry">
                        <mxPoint x="-120" y="460" as="sourcePoint"/>
                        <mxPoint x="-70" y="410" as="targetPoint"/>
                    </mxGeometry>
                </mxCell>
                <mxCell id="50" value="" style="endArrow=none;dashed=1;html=1;fontFamily=Helvetica;fontSize=12;fontColor=#232F3E;fontStyle=0;entryX=0;entryY=0.5;entryDx=0;entryDy=0;exitX=0;exitY=0.5;exitDx=0;exitDy=0;edgeStyle=elbowEdgeStyle;strokeWidth=3;strokeColor=#666666;" edge="1" parent="1" source="47" target="12">
                    <mxGeometry width="50" height="50" relative="1" as="geometry">
                        <mxPoint x="-1050" y="290" as="sourcePoint"/>
                        <mxPoint x="-1000" y="240" as="targetPoint"/>
                        <Array as="points">
                            <mxPoint x="-1020" y="480"/>
                        </Array>
                    </mxGeometry>
                </mxCell>
                <mxCell id="51" value="&lt;font style=&quot;color: rgb(102, 102, 102);&quot;&gt;PLUMED&lt;/font&gt;" style="text;html=1;align=center;verticalAlign=middle;whiteSpace=wrap;rounded=0;fontColor=#808080;fontStyle=0;fontFamily=Helvetica;fontSize=27;" vertex="1" parent="1">
                    <mxGeometry x="-140" y="800" width="120" height="30" as="geometry"/>
                </mxCell>
                <mxCell id="52" style="html=1;dashed=1;endArrow=none;endFill=0;strokeWidth=3;exitX=1;exitY=0.5;exitDx=0;exitDy=0;entryX=0.75;entryY=1;entryDx=0;entryDy=0;strokeColor=#666666;" edge="1" parent="1" source="51" target="45">
                    <mxGeometry relative="1" as="geometry">
                        <mxPoint x="10" y="800" as="targetPoint"/>
                        <mxPoint x="-90" y="905" as="sourcePoint"/>
                        <Array as="points">
                            <mxPoint x="15" y="815"/>
                        </Array>
                    </mxGeometry>
                </mxCell>
                <mxCell id="68" value="" style="points=[[0,0.58,0],[0.09,0.58,0],[0.36,0.39,0],[0.64,0.195,0],[0.91,0,0],[1,0,0],[1,0.25,0],[1,0.5,0],[1,0.75,0],[1,1,0],[0,1,0],[0.09,1,0],[0.36,1,0],[0.64,1,0],[0.91,1,0],[0,0.79,0]];verticalLabelPosition=bottom;sketch=0;html=1;verticalAlign=top;aspect=fixed;align=center;pointerEvents=1;shape=mxgraph.cisco19.wifi_indicator;fillColor=#4D9900;strokeColor=none;shadow=0;dashed=0;fontFamily=Helvetica;fontSize=12;fontColor=#232F3E;fontStyle=0;" vertex="1" parent="1">
                    <mxGeometry x="-570" y="700" width="50" height="50" as="geometry"/>
                </mxCell>
            </root>
        </mxGraphModel>
    </diagram>
</mxfile>